<svg xmlns="http://www.w3.org/2000/svg" shape-rendering="geometricPrecision" text-rendering="geometricPrecision" fill="currentColor" image-rendering="optimizeQuality" fill-rule="evenodd" clip-rule="evenodd" viewBox="0 0 474 512.27"><path fill="currentColor" d="M352.84 253.82h67.5v-13.06c-3.86-14.29-10-23.98-17.97-29.88-7.94-5.88-18.27-8.4-30.38-8.31l-283.53.06c-6.81 0-12.33-5.52-12.33-12.34 0-6.81 5.52-12.33 12.33-12.33l39.5.01c-4.21-6.56-7.76-13.57-10.59-20.95-1.57-4.17-2.93-8.39-4.05-12.72H66.73c-11.55 0-22.07 4.74-29.7 12.37-7.62 7.62-12.36 18.14-12.36 29.7v259.16c0 11.54 4.75 22.06 12.38 29.68 7.6 7.66 18.13 12.39 29.68 12.39h311.54c11.54 0 22.06-4.75 29.7-12.37 7.62-7.64 12.37-18.17 12.37-29.7v-36.97h-67.5c-20.85 0-39.8-8.53-53.5-22.24l-1.29-1.4c-12.96-13.64-20.95-32.01-20.95-52.1v-3.26c0-20.75 8.52-39.67 22.24-53.42l.13-.13c13.75-13.69 32.64-22.19 53.37-22.19zm92.17.7c7.11 1.42 13.48 4.94 18.42 9.88 6.51 6.51 10.57 15.53 10.57 25.46v81.12c0 10.27-4.23 19.66-11.07 26.51a37.281 37.281 0 0 1-17.92 10.07v37.97c0 18.29-7.54 34.97-19.63 47.06l-.05.05c-12.09 12.09-28.77 19.63-47.06 19.63H66.73c-18.28 0-34.98-7.53-47.1-19.64C7.52 480.57 0 463.89 0 445.53V186.37c0-18.37 7.51-35.06 19.59-47.15 12.08-12.08 28.77-19.59 47.14-19.59h43.08c-.05-1.32-.07-2.65-.07-3.99 0-31.9 12.96-60.83 34-81.91 45.05-44.92 118.69-45.02 163.72 0l1.11 1.21c20.31 20.9 32.82 49.37 32.82 80.7 0 1.34-.03 2.67-.07 3.99h36.95c18.31 0 34.99 7.53 47.09 19.63 12.12 12.07 19.65 28.78 19.65 47.11v68.15zm-121.85-76.53h48.5c17.41-.16 32.75 3.8 45.36 13.15 1.13.84 2.24 1.72 3.32 2.64v-7.41c0-11.52-4.75-22.05-12.39-29.69-7.59-7.65-18.1-12.38-29.68-12.38H337.8c-1.1 4.34-2.46 8.59-4.04 12.72-2.82 7.4-6.38 14.4-10.6 20.97zM206.69 64.7c-.04-4.81-.49-8.26 5.49-8.17l24.46.23c6.23-.03 7.89 1.95 7.82 7.79v23.16h23.01c4.81-.03 8.25-.48 8.16 5.49l-.23 24.46c.03 6.24-1.94 7.9-7.79 7.83h-23.15v23.14c.07 5.85-1.59 7.83-7.82 7.79l-24.46.23c-5.98.09-5.53-3.35-5.49-8.16v-23h-23.16c-5.85.07-7.83-1.6-7.79-7.83l-.23-24.46c-.1-5.97 3.35-5.52 8.16-5.49h23.02V64.7zm18.88-45.25c53.12 0 96.18 43.06 96.18 96.19 0 24.7-9.32 47.23-24.63 64.26H154c-15.31-17.03-24.62-39.56-24.62-64.26 0-53.13 43.06-96.19 96.19-96.19zm133.52 280.81c8.13 0 15.51 3.31 20.85 8.66 5.38 5.38 8.69 12.76 8.69 20.89 0 8.12-3.31 15.5-8.65 20.85-5.38 5.38-12.76 8.69-20.89 8.69-8.12 0-15.49-3.31-20.85-8.65l-.06-.06c-5.34-5.36-8.63-12.73-8.63-20.83 0-8.12 3.31-15.5 8.65-20.85l.06-.06c5.35-5.33 12.72-8.64 20.83-8.64z"/></svg>