<svg width="256px" height="256px" viewBox="0 0 36 36" fill="currentColor" x="128" y="128" role="img" style="display:inline-block;vertical-align:middle" xmlns="http://www.w3.org/2000/svg"><g fill="currentColor"><path fill="currentColor" d="M26 21.15a6.91 6.91 0 0 0-4.38-3.32a26 26 0 0 0-2.62-.64V8.12A10.05 10.05 0 0 1 23.86 10a1 1 0 0 0 1.33-1.5A11.75 11.75 0 0 0 19 6.1V3a1 1 0 0 0-2 0v3c-4.4.1-6.83 2.29-7.57 4.18A5.56 5.56 0 0 0 11.66 17A13.2 13.2 0 0 0 17 18.84V28a12.3 12.3 0 0 1-7.14-2.74a1 1 0 1 0-1.37 1.44A14.09 14.09 0 0 0 17 30v3a1 1 0 0 0 2 0v-3c2.82-.19 6.07-1.09 7.3-4.76a5.33 5.33 0 0 0-.3-4.09Zm-13.21-5.83a3.57 3.57 0 0 1-1.49-4.39c.11-.3 1.23-2.81 5.7-2.93v8.8a10.7 10.7 0 0 1-4.21-1.48Zm11.61 9.24c-.72 2.14-2.32 3.17-5.4 3.4v-8.73c.64.14 1.3.3 2 .51a5 5 0 0 1 3.19 2.32a3.34 3.34 0 0 1 .21 2.5Z" class="clr-i-outline clr-i-outline-path-1"/><path fill="none" d="M0 0h36v36H0z"/></g></svg>