<svg width="256px" height="256px" viewBox="0 0 32 32" fill="currentColor" x="128" y="128" role="img" style="display:inline-block;vertical-align:middle" xmlns="http://www.w3.org/2000/svg"><g fill="currentColor"><path fill="currentColor" d="M23.6 11.6c1-.6 1.7-1.5 2.1-2.6c.4-1.1.4-2.2.1-3.3c-.3-1.1-1-2-1.9-2.7c-.9-.7-2.1-1-3.2-1h-9.2c-1.2 0-2.3.4-3.2 1c-1.1.7-1.7 1.7-2.1 2.7c-.3 1.1-.3 2.3.1 3.3c.4 1.1 1.1 2 2.1 2.6c-.7.5-1.4 1.1-1.8 1.9c-.4.8-.6 1.6-.6 2.5c0 .9.2 1.7.6 2.5c.4.8 1 1.4 1.8 1.9c-1 .6-1.7 1.5-2.1 2.6c-.4 1.1-.4 2.2-.1 3.3c.3 1.1 1 2 2 2.7c.9.7 2.1 1 3.2 1c1.4 0 2.8-.6 3.9-1.5c1-1 1.6-2.3 1.6-3.7V20c1 .9 2.3 1.4 3.6 1.4h.1c1.2 0 2.3-.4 3.2-1c.9-.7 1.6-1.6 1.9-2.7c.3-1.1.3-2.2-.1-3.3c-.3-1.3-1.1-2.2-2-2.8zm-6.7-7.9h3.7c.5 0 1 0 1.4.2c.5.2.9.4 1.2.8c.4.3.6.7.8 1.2s.3.9.3 1.4c0 .5-.1 1-.3 1.4c-.2.4-.5.8-.8 1.2c-.4.3-.8.6-1.2.8c-.5.2-1 .2-1.4.2h-3.7V3.7zm-5.5 0h3.7v7h-3.7c-.9 0-1.8-.4-2.4-1.1c-.7-.6-1-1.5-1-2.4s.4-1.8 1-2.4c.6-.6 1.5-1 2.4-1.1zM7.8 16c0-.9.4-1.8 1.1-2.5c.7-.7 1.6-1 2.6-1h3.7v7h-3.7c-1 0-1.9-.4-2.6-1c-.7-.7-1.1-1.6-1.1-2.5zm7.3 8.7c0 1-.4 1.9-1.1 2.5c-.7.7-1.6 1-2.6 1c-.5 0-1 0-1.4-.2c-.5-.2-.9-.4-1.2-.7c-.4-.3-.6-.7-.8-1.2c-.2-.4-.3-.9-.3-1.4c0-.5.1-1 .3-1.4c.2-.4.5-.8.8-1.2c.4-.3.8-.6 1.2-.8c.5-.2 1-.2 1.4-.2h3.7v3.6zm5.5-5.2h-.1c-.9 0-1.8-.4-2.4-1.1c-.6-.7-1-1.5-1-2.4c0-.9.4-1.8 1-2.4c.6-.7 1.5-1 2.4-1.1h.1c.5 0 1 0 1.4.2c.5.2.9.4 1.2.8c.4.3.6.7.8 1.2c.2.4.3.9.3 1.4c0 .5-.1 1-.3 1.4c-.2.4-.5.8-.8 1.2c-.4.3-.8.6-1.2.8h-1.4z"/></g></svg>